<svg id="Layer_1" data-name="Layer 1" xmlns="http://www.w3.org/2000/svg" viewBox="0 0 837 341.7"><defs><style>.cls-1,.cls-2{fill:none;stroke:#fff;stroke-miterlimit:10;}.cls-1{stroke-width:3px;}.cls-3{font-size:223.13px;font-family:Sublima-ExtraBold, Sublima;font-weight:800;}</style></defs><path d="M848,534.52l30.12,30a9.31,9.31,0,0,1,1.65,11l-33.9,63.83,1.29-39.6a9.07,9.07,0,0,0,5.1-7.94,6,6,0,0,0-.28-2.31,8.92,8.92,0,0,0-17.22,0,6.3,6.3,0,0,0-.5,2.31,9.06,9.06,0,0,0,5,8l1.58,39.66-34.15-63.9a9.29,9.29,0,0,1,1.61-11l30-30.12A6.81,6.81,0,0,1,848,534.52Z" transform="translate(-47.83 -328.79)"/><path d="M874.63,352.63c-2.35,3-7.51,20.27-4.5,34.85a1.75,1.75,0,0,1-2.27,2c-3.9-1.31-11.27-2.81-24.61-2.81-13,0-20.36,1.43-24.33,2.72a1.75,1.75,0,0,1-2.26-2c2.94-14.64-2.45-31.75-4.8-34.77-2.7-3.47,12-23.84,31.53-23.84S877.33,349.16,874.63,352.63Z" transform="translate(-47.83 -328.79)"/><path class="cls-1" d="M815.09,417.28a2.9,2.9,0,0,1-.34-.27" transform="translate(-47.83 -328.79)"/><path class="cls-1" d="M871.89,417l-.11.09" transform="translate(-47.83 -328.79)"/><path class="cls-1" d="M815.85,394.77a5.93,5.93,0,0,0-1.17.75" transform="translate(-47.83 -328.79)"/><path class="cls-1" d="M871.82,395.52A4.59,4.59,0,0,0,871,395" transform="translate(-47.83 -328.79)"/><path d="M870.44,414.09l-.23.45h0c-.77.61-6.36,4.41-27,4.41-19.27,0-25.43-3.3-26.8-4.25l-.32-.61s-6.18-5.26,0-18a19.68,19.68,0,0,0,1-2.73c2.38-1.27,9.22-3.78,26-3.78,17.62,0,24.28,2.77,26.34,4h0a17.6,17.6,0,0,0,1,2.55C876.62,408.83,870.44,414.09,870.44,414.09Z" transform="translate(-47.83 -328.79)"/><line class="cls-2" x1="795.56" y1="195.44" x2="795.56" y2="193.01"/><path d="M884.52,538.14l-8.58,8.55a6.32,6.32,0,0,1-9,0l-18.26-17.58a8,8,0,0,0-11.25,0l-18,17.58a6.32,6.32,0,0,1-9,0L802,538.14a1,1,0,0,1-.16-1.28l.65-1.11a208.26,208.26,0,0,0,16-34c4.65-12.8,5-24.17,5.66-39.27.66-16.06-3.35-32.62-6.94-40.84a1.91,1.91,0,0,1,2.31-2.59c4.08,1.24,11.34,2.55,23.79,2.55S863,420.28,867,419a1.91,1.91,0,0,1,2.31,2.59c-3.59,8.22-7.6,24.78-6.94,40.84.62,15.1,1,26.47,5.66,39.27a208.26,208.26,0,0,0,16,34l.65,1.11A1,1,0,0,1,884.52,538.14Z" transform="translate(-47.83 -328.79)"/><text class="cls-3" transform="translate(0 262.71)">Norma</text></svg>